#!OML:ASF X:\für Bonn\!DataBase\2005_08_12_Daniel\c3d\Daniel.ASF
:FULLY-SPECIFIED
:DEGREES
138
root -2.86977 13.746 -2.79914 321.837 -81.9336 -338.921
lowerback 36.489 -3.72906 -0.374112
upperback 3.50206 -5.8818 -2.74838
thorax -14.7303 -2.82972 -0.136046
lowerneck -0.037816 1.83781 -3.98447
upperneck 1.25748 2.45192 0.583643
head 0.333479 1.20671 0.841426
rclavicle 1.93815e-014 8.34896e-015
rhumerus 65.1747 -1.41978 -101.255
rradius 7.8334
rwrist 69.3238
rhand -17.8223 12.1197
rfingers 7.12502
rthumb 8.44182 -17.6916
lclavicle 1.93815e-014 8.34896e-015
lhumerus 66.9368 -1.97285 88.1643
lradius 9.96878
lwrist -59.6165
lhand -14.7627 3.48721
lfingers 7.12502
lthumb 11.3936 33.1577
rfemur -24.787 -28.4188 -4.36701
rtibia 90.1562
rfoot -18.8632 27.6656
rtoes -3.52722
lfemur -33.9728 14.1741 -11.2327
ltibia 87.072
lfoot -20.0493 -34.6447
ltoes 10.2083
139
root -2.87708 13.922 -2.79856 322.045 -81.8923 -338.728
lowerback 35.9332 -3.72137 -0.431756
upperback 3.37522 -5.86711 -2.71468
thorax -14.6552 -2.81617 -0.0992211
lowerneck 0.0510162 1.83718 -4.03292
upperneck 1.25345 2.44691 0.553821
head 0.317474 1.2036 0.839202
rclavicle 7.33515e-014 1.59028e-015
rhumerus 65.2511 -1.28052 -101.17
rradius 7.55363
rwrist 69.2613
rhand -17.6565 11.8739
rfingers 7.12502
rthumb 8.60187 -17.9309
lclavicle 7.33515e-014 1.59028e-015
lhumerus 66.7056 -1.6638 88.852
lradius 9.91073
lwrist -60.2054
lhand -14.6615 3.70823
lfingers 7.12502
lthumb 11.4912 33.3733
rfemur -24.0634 -27.7401 -3.54431
rtibia 88.026
rfoot -19.62 26.5143
rtoes -4.15301
lfemur -33.0367 13.6499 -11.6787
ltibia 85.0254
lfoot -20.712 -33.7994
ltoes 9.65145
140
root -2.88522 14.0958 -2.79857 322.239 -81.8637 -338.562
lowerback 35.4 -3.71499 -0.45963
upperback 3.27218 -5.84998 -2.71608
thorax -14.5647 -2.8055 -0.116991
lowerneck 0.164817 1.83311 -4.03386
upperneck 1.19242 2.43579 0.550007
head 0.280278 1.19872 0.836311
rclavicle -2.23633e-015 -8.74653e-015
rhumerus 65.1982 -1.22667 -101.111
rradius 7.4373
rwrist 69.1304
rhand -17.4583 11.6881
rfingers 7.12502
rthumb 8.7931 -18.1087
lclavicle -2.23633e-015 -8.74653e-015
lhumerus 66.4887 -1.41291 89.499
lradius 9.85678
lwrist -60.8266
lhand -14.5501 3.87511
lfingers 7.12502
lthumb 11.5987 33.5341
rfemur -23.271 -27.0673 -2.76496
rtibia 85.8694
rfoot -20.3266 25.3712
rtoes -4.7933
lfemur -32.045 13.1331 -12.0848
ltibia 82.9591
lfoot -21.1915 -32.9625
ltoes 9.12513
141
root -2.89276 14.2662 -2.79871 322.221 -81.8199 -338.185
lowerback 34.8737 -3.69237 -0.545102
upperback 3.17252 -5.83075 -2.69412
thorax -14.4617 -2.79062 -0.080055
lowerneck 0.211809 1.83011 -4.10218
upperneck 1.20926 2.42934 0.554864
head 0.276996 1.19478 0.848951
rclavicle 2.30093e-014 1.70955e-014
rhumerus 65.0405 -1.13038 -101.017
rradius 7.44592
rwrist 69.03
rhand -17.2811 11.515
rfingers 7.12502
rthumb 8.96408 -18.2745
lclavicle 2.30093e-014 1.70955e-014
lhumerus 66.2754 -1.11809 90.1797
lradius 9.84885
lwrist -61.5073
lhand -14.4229 4.0454
lfingers 7.12502
lthumb 11.7213 33.6975
rfemur -22.471 -26.3963 -2.06272
rtibia 83.7028
rfoot -20.9198 24.2603
rtoes -5.45338
lfemur -31.0637 12.6236 -12.5181
ltibia 80.8835
lfoot -21.5327 -32.0864
ltoes 8.60504
142
root -2.90369 14.4354 -2.79903 322.363 -81.778 -338.017
lowerback 34.3736 -3.66834 -0.60604
upperback 3.07693 -5.79891 -2.66139
thorax -14.3622 -2.77137 -0.0487936
lowerneck 0.27593 1.81984 -4.17597
upperneck 1.23026 2.41221 0.57483
head 0.272175 1.18546 0.867085
rclavicle 4.27387e-014 -9.93923e-015
rhumerus 64.78 -1.08874 -100.889
rradius 7.5446
rwrist 68.8994
rhand -17.1458 11.3947
rfingers 7.12502
rthumb 9.09465 -18.3892
lclavicle 4.27387e-014 -9.93923e-015
lhumerus 66.0178 -0.843245 90.8814
lradius 9.88417
lwrist -62.242
lhand -14.3017 4.16557
lfingers 7.12502
lthumb 11.8382 33.811
rfemur -21.5514 -25.7363 -1.40137
rtibia 81.4878
rfoot -21.3652 23.1898
rtoes -5.93589
lfemur -30.0181 12.0949 -12.9075
ltibia 78.7798
lfoot -21.9013 -31.1867
ltoes 7.98472
